<svg width="33" height="33" viewBox="0 0 33 33" fill="none" xmlns="http://www.w3.org/2000/svg">
<path d="M9.39334 30.2468C8.59208 30.1695 7.98039 29.4155 8.05648 28.5374C8.1326 27.6594 8.86371 27.0348 9.66494 27.1121C10.4661 27.1894 11.0778 27.9434 11.0018 28.8214C10.9257 29.6995 10.1945 30.3239 9.39334 30.2468Z" stroke="white" stroke-width="0.5"/>
<path d="M6.53494 23.1577L8.00934 26.178L8.41133 27.2633L8.38884 27.5228L9.68608 26.863L8.01069 23.3L9.68877 21.107L13.263 28.5161L14.7388 28.6584L10.5166 20.1402L12.2171 17.6878L11.6142 16.0597L6.53494 23.1577Z" fill="white" stroke="white" stroke-width="0.5"/>
<path d="M1.40047 16.6068C1.11963 15.78 1.53078 14.887 2.29142 14.5994C3.05201 14.312 3.90645 14.7264 4.18737 15.553C4.46826 16.3798 4.05785 17.2724 3.29733 17.5601C2.53665 17.8478 1.68138 17.4337 1.40047 16.6068Z" stroke="white" stroke-width="0.5"/>
<path d="M6.27758 10.8874L4.30343 13.5714L3.5401 14.4136L3.3076 14.5015L4.42177 15.4642L6.77759 12.3591L9.37008 13.0395L4.50928 19.583L5.00928 21.0547L10.5501 13.4237L13.3751 14.0162L14.5201 12.7529L6.27758 10.8874Z" fill="white" stroke="white" stroke-width="0.5"/>
<path d="M8.40078 2.99357C8.92023 2.31934 9.85607 2.22049 10.4903 2.76405C11.1243 3.30765 11.2237 4.29366 10.7046 4.96807C10.1853 5.64249 9.24955 5.74242 8.61524 5.199C7.98093 4.65537 7.88138 3.66807 8.40078 2.99357Z" stroke="white" stroke-width="0.5"/>
<path d="M15.5667 4.43593L12.3679 4.04434L11.2897 3.79164L11.098 3.62734L10.8944 5.13141L14.6323 5.64935L15.4232 8.34141L7.59992 7.34347L6.66553 8.55688L15.7228 9.6053L16.7054 12.4617L18.3227 12.8407L15.5667 4.43593Z" fill="white" stroke="white" stroke-width="0.5"/>
<path d="M25.1219 29.7919C24.6743 30.5252 23.7544 30.7294 23.0701 30.265C22.3859 29.8003 22.1805 28.8318 22.628 28.0982C23.0756 27.3646 23.9967 27.1601 24.6811 27.6249C25.3651 28.0897 25.5695 29.0584 25.1219 29.7919Z" stroke="white" stroke-width="0.5"/>
<path d="M17.85 29.1917L21.0702 29.2094L22.1683 29.3353L22.376 29.4764L22.4214 27.9578L18.6521 27.8771L17.5851 25.2932L25.465 25.3766L26.2671 24.062L17.1555 24.0718L15.8808 21.3469L14.2337 21.158L17.85 29.1917Z" fill="white" stroke="white" stroke-width="0.5"/>
<path d="M21.6557 0.712549C22.4544 0.609173 23.2037 1.20931 23.3056 2.08409C23.4075 2.95902 22.8181 3.73342 22.0193 3.83697C21.2205 3.94044 20.4711 3.33944 20.3692 2.46446C20.2676 1.58959 20.8569 0.816012 21.6557 0.712549Z" stroke="white" stroke-width="0.5"/>
<path d="M25.8713 7.00223L23.8242 4.3797L23.2135 3.40874L23.1834 3.15012L22.048 4.08475L24.4004 7.19275L23.2005 9.71085L18.2204 3.26797L16.7495 3.4585L22.5854 10.8406L21.4156 13.6173L22.3316 15.0737L25.8713 7.00223Z" fill="white" stroke="white" stroke-width="0.5"/>
<path d="M30.9691 15.041C31.4053 15.7828 31.1848 16.7475 30.4936 17.1998C29.8023 17.6521 28.8852 17.4319 28.449 16.69C28.0129 15.9482 28.2334 14.9835 28.9245 14.5312C29.6157 14.0789 30.5329 14.2992 30.9691 15.041Z" stroke="white" stroke-width="0.5"/>
<path d="M27.3342 21.7123L28.7317 18.6515L29.3108 17.6593L29.5207 17.522L28.2401 16.8269L26.5531 20.3837L23.883 20.2913L27.3368 12.8188L26.5557 11.4902L22.6529 20.1764L19.7729 20.2212L18.9042 21.7096L27.3342 21.7123Z" fill="white" stroke="white" stroke-width="0.5"/>
</svg>
